<svg xmlns="http://www.w3.org/2000/svg" viewBox="0 0 650 200.273"><path d="M371.215 181.664c-2.348-3.02-3.049-7.723-3.049-17.376 0-1.96-1.115-151.615-1.115-151.615.18-6.828-1.526-8.819-4.372-8.535-2.64.265-3.437 1.623-6.386 3.899-6.771 5.2-8.823 6.515-13.528 8.618-3.982 1.789-9.212 3.839-12.585 4.733-3.184.845-5.909 1.81-7.028 4.03-1.122 2.22.943 3.862 3.592 5.518 3.655 2.293 5.475 5.877 5.475 10.835 0 0 .537 130.35.537 131.139 0 7.21-1.088 8.47-4.786 11.6-2.475 2.095-7.111 4.55-7.111 6.543 0 1.732 2.413 2.89 10.9 3.125 0 0 38.022.05 39.3.05 5.225 0 10.416-1.18 10.68-3.175.568-4.255-8.533-6.816-10.524-9.378M305.44 186.114c-6.59-3.998-8.133-7.67-8.133-19.335 0 0-.633-49.707-.805-57.934-.082-9.346-.505-12.888-2.065-17.433-2.146-6.25-6.29-11.962-11.427-15.723-6.322-4.625-17.416-8.134-27.303-7.834-9.39.284-18.21 2.56-25.608 6.963-2.652 1.58-3.81 2.146-5.225 2.146-2.034 0-3-1.828-3-5.64 0-1.179.333-52.403.333-57.293s-.072-10.188-4.055-10.473c-4.824-.346-6.543 5.406-16.215 10.81-3.693 2.065-13.712 5.814-19.631 7.967-3.13 1.138-4.365 2.39-4.365 3.624 0 1.505 1.604 3.033 4.365 5.196 2.925 2.298 5.12 3.982 5.404 15.93 0 0-.09 125.518-.17 128.114-.114 3.61-2.185 7.163-4.095 9.299-1.912 2.135-6.544 3.983-6.705 6.483-.144 2.19 2.89 3.154 9.579 3.154 1.137 0 39.685.036 40.653.036 4.948 0 9.083-.854 9.083-3.368 0-1.528-1.853-3.325-6.29-6.094-3.689-2.3-4.737-3.34-5.852-5.684-1.21-2.581-1.812-6.523-1.812-11.846 0-1.415.434-49.396.318-56.934-.083-5.501.308-11.153 2.241-13.761 3.789-5.096 11.7-9.568 19.097-9.284 7.676.296 17.639 2.846 17.84 14.965 0 0 .937 67.034.937 68.107 0 6.558-2.034 11.07-6.762 14.695-3.52 2.698-4.919 4.342-4.919 5.793 0 2.31 3.008 3.277 10.216 3.277l30.199.18c12.003 0 17.924-.9 18.203-4.156.104-1.2-.844-2.023-4.03-3.956M456.56 182.511c-23.613 0-30.441-24.466-30.441-50.356 0-33.57 15.078-49.502 25.889-49.502 25.889 0 29.872 29.162 29.872 49.502 0 34.993-13.087 50.356-25.32 50.356M455.906 67.9c-46.857 0-68.053 36.943-68.053 62.877 0 32.957 22.62 66.534 65.907 66.534 37.225 0 65.486-28.152 65.486-64.549 0-35.882-28.545-64.862-63.34-64.862M163.858 129.326c-3.48 0-6.406 3.24-9.524 10.513-3.732 8.683-7.787 16.956-10.82 21.985-3.826 6.365-15.263 22.107-42.006 22.107-11.663 0-24.181-3.984-36.169-15.393-15.43-14.69-23.234-37.72-23.234-68.673 0-18.537 2.77-33.692 8.468-46.386 9.8-21.821 30.278-35.814 52.374-35.814 21.163 0 37.651 14.318 48.07 41.68 2.69 7.054 4.347 9.095 7.42 9.095 3.582 0 5.03-2.788 5.03-9.606 0-2.675-.507-14.592-1.362-24.835-.213-2.55.855-10.525-7.965-15.646-5.324-3.09-24.182-17.07-49.219-18.21-24.726-1.122-41.02 6.892-47.697 10.101C21.296 27.521-.004 61.776-.004 102.28c0 55.415 43.11 98.024 99.206 98.024 18.65 0 36.983-5.008 53.595-14.612 2.559-1.48 3.957-2.505 5.095-3.698 2.502-2.624 3.665-5.86 4.943-13.748.217-1.416 5.955-30.647 5.955-32.672.005-3.835-1.906-6.248-4.928-6.248M570.364 113.373c2.56-10.525 6.827-30.724 22.19-30.724 12.519 0 18.494 16.216 20.2 32.147.425 3.96.853 7.683-8.536 7.683 0 0-24.54-.044-25.94-.044-9.337 0-9.342-3.196-7.914-9.062m54.623 23.93c5.405 0 20.714.774 23.138-1.685 2.03-2.059 1.847-3.879 1.847-7.619 0-29.81-21.001-59.86-57.133-59.86-39.544 0-62.394 36.7-62.394 63.567 0 35.983 28.767 65.119 64.324 65.119 18.673 0 36.748-7.623 48.06-20.253 2.804-3.126 4.046-5.565 4.046-7.932 0-3.014-2.388-5.444-5.346-5.444-1.927 0-4.055 1.21-7.258 4.155-5.443 4.997-20.834 16.381-36.026 13.167-29.588-6.26-29.019-39.262-27.597-43.247 0 0 52.43.033 54.34.033M592.873 60.343c4.992 0 14.686-3.494 22.204-7.994 10.538-6.325 16.527-13.314 16.527-19.247 0-4.786-3.488-7.347-10.377-8.995-.784-.19-13.713-4.08-18.716-5.747-3.414-1.14-9.443-.285-9.443 3.975 0 1.617.999 3.282 3.592 5.956 2.917 3.008 3.998 5.299 3.998 8.437 0 2.227-.626 4.257-1.941 6.33-1.278 2.007-2.243 2.869-5.543 4.957-5.3 3.349-7.436 5.591-7.436 7.817 0 4.346 4.824 4.511 7.135 4.511" fill="#FEE2C7"/></svg>